<mxfile host="Electron" agent="Mozilla/5.0 (Windows NT 10.0; Win64; x64) AppleWebKit/537.36 (KHTML, like Gecko) draw.io/26.2.15 Chrome/134.0.6998.205 Electron/35.2.1 Safari/537.36" version="26.2.15">
  <diagram name="與AI互動活動圖" id="nQvQ3VrRR3o1R0Ky4Lyo">
    <mxGraphModel dx="996" dy="1067" grid="1" gridSize="10" guides="1" tooltips="1" connect="1" arrows="1" fold="1" page="1" pageScale="1" pageWidth="827" pageHeight="1169" math="0" shadow="0">
      <root>
        <mxCell id="0" />
        <mxCell id="1" parent="0" />
        <mxCell id="7a1_b_J5-R9K5x0xeJeq-1" value="" style="ellipse;shape=startState;fillColor=#000000;strokeColor=#000000;" vertex="1" parent="1">
          <mxGeometry x="230" y="444" width="30" height="30" as="geometry" />
        </mxCell>
        <mxCell id="7a1_b_J5-R9K5x0xeJeq-2" value="" style="edgeStyle=elbowEdgeStyle;elbow=horizontal;verticalAlign=bottom;endArrow=open;endSize=8;strokeColor=#000000;endFill=1;rounded=0;fillColor=#000000;" edge="1" parent="1" source="7a1_b_J5-R9K5x0xeJeq-1">
          <mxGeometry x="100" y="40" as="geometry">
            <mxPoint x="245.64285714285734" y="514" as="targetPoint" />
          </mxGeometry>
        </mxCell>
        <mxCell id="7a1_b_J5-R9K5x0xeJeq-3" value="" style="endArrow=open;strokeColor=#000000;endFill=1;rounded=0" edge="1" parent="1" target="7a1_b_J5-R9K5x0xeJeq-6">
          <mxGeometry relative="1" as="geometry">
            <mxPoint x="245" y="556" as="sourcePoint" />
            <mxPoint x="244.75" y="616" as="targetPoint" />
          </mxGeometry>
        </mxCell>
        <mxCell id="7a1_b_J5-R9K5x0xeJeq-4" value="使用者" style="swimlane;whiteSpace=wrap;startSize=30;fontSize=20;" vertex="1" parent="1">
          <mxGeometry x="130" y="410" width="270" height="660" as="geometry" />
        </mxCell>
        <mxCell id="7a1_b_J5-R9K5x0xeJeq-5" value="" style="ellipse;html=1;shape=endState;fillColor=#000000;strokeColor=#000000;" vertex="1" parent="7a1_b_J5-R9K5x0xeJeq-4">
          <mxGeometry x="120" y="580" width="30" height="30" as="geometry" />
        </mxCell>
        <mxCell id="7a1_b_J5-R9K5x0xeJeq-6" value="點選AI助手頁面" style="fontSize=20;" vertex="1" parent="7a1_b_J5-R9K5x0xeJeq-4">
          <mxGeometry x="37.5" y="105" width="155" height="50" as="geometry" />
        </mxCell>
        <mxCell id="7a1_b_J5-R9K5x0xeJeq-7" style="edgeStyle=orthogonalEdgeStyle;rounded=0;orthogonalLoop=1;jettySize=auto;html=1;entryX=0.5;entryY=0;entryDx=0;entryDy=0;" edge="1" parent="7a1_b_J5-R9K5x0xeJeq-4" source="7a1_b_J5-R9K5x0xeJeq-8" target="7a1_b_J5-R9K5x0xeJeq-9">
          <mxGeometry relative="1" as="geometry" />
        </mxCell>
        <mxCell id="7a1_b_J5-R9K5x0xeJeq-8" value="輸入問題" style="fontSize=20;" vertex="1" parent="7a1_b_J5-R9K5x0xeJeq-4">
          <mxGeometry x="36.879999999999995" y="200" width="155.62" height="50" as="geometry" />
        </mxCell>
        <mxCell id="7a1_b_J5-R9K5x0xeJeq-9" value="點擊提交" style="fontSize=20;" vertex="1" parent="7a1_b_J5-R9K5x0xeJeq-4">
          <mxGeometry x="35" y="280" width="157.5" height="50" as="geometry" />
        </mxCell>
        <mxCell id="7a1_b_J5-R9K5x0xeJeq-10" value="系統" style="swimlane;whiteSpace=wrap;startSize=30;fontSize=20;" vertex="1" parent="1">
          <mxGeometry x="400" y="410" width="400" height="660" as="geometry" />
        </mxCell>
        <mxCell id="7a1_b_J5-R9K5x0xeJeq-11" style="edgeStyle=orthogonalEdgeStyle;rounded=0;orthogonalLoop=1;jettySize=auto;html=1;entryX=0.5;entryY=0;entryDx=0;entryDy=0;exitX=0;exitY=0.5;exitDx=0;exitDy=0;" edge="1" parent="7a1_b_J5-R9K5x0xeJeq-10" source="7a1_b_J5-R9K5x0xeJeq-13" target="7a1_b_J5-R9K5x0xeJeq-19">
          <mxGeometry relative="1" as="geometry" />
        </mxCell>
        <mxCell id="7a1_b_J5-R9K5x0xeJeq-12" style="edgeStyle=orthogonalEdgeStyle;rounded=0;orthogonalLoop=1;jettySize=auto;html=1;" edge="1" parent="7a1_b_J5-R9K5x0xeJeq-10" source="7a1_b_J5-R9K5x0xeJeq-13" target="7a1_b_J5-R9K5x0xeJeq-21">
          <mxGeometry relative="1" as="geometry" />
        </mxCell>
        <mxCell id="7a1_b_J5-R9K5x0xeJeq-13" value="&#xa;" style="rhombus;fillColor=#FFFFFF;strokeColor=#000000;" vertex="1" parent="7a1_b_J5-R9K5x0xeJeq-10">
          <mxGeometry x="176.25" y="400" width="47.5" height="30" as="geometry" />
        </mxCell>
        <mxCell id="7a1_b_J5-R9K5x0xeJeq-14" value="&lt;font style=&quot;font-size: 15px;&quot;&gt;[是]&lt;/font&gt;" style="whiteSpace=wrap;html=1;strokeColor=none;fillColor=none;" vertex="1" parent="7a1_b_J5-R9K5x0xeJeq-10">
          <mxGeometry x="70" y="430" width="40" height="20" as="geometry" />
        </mxCell>
        <mxCell id="7a1_b_J5-R9K5x0xeJeq-15" value="&lt;font style=&quot;font-size: 15px;&quot;&gt;[否]&lt;/font&gt;" style="whiteSpace=wrap;html=1;strokeColor=none;fillColor=none;" vertex="1" parent="7a1_b_J5-R9K5x0xeJeq-10">
          <mxGeometry x="300" y="430" width="57.25" height="20" as="geometry" />
        </mxCell>
        <mxCell id="7a1_b_J5-R9K5x0xeJeq-16" value="顯示聊天區" style="fontSize=20;" vertex="1" parent="7a1_b_J5-R9K5x0xeJeq-10">
          <mxGeometry x="76.63" y="105" width="161.37" height="50" as="geometry" />
        </mxCell>
        <mxCell id="7a1_b_J5-R9K5x0xeJeq-17" style="edgeStyle=orthogonalEdgeStyle;rounded=0;orthogonalLoop=1;jettySize=auto;html=1;entryX=0.5;entryY=0;entryDx=0;entryDy=0;" edge="1" parent="7a1_b_J5-R9K5x0xeJeq-10" source="7a1_b_J5-R9K5x0xeJeq-18" target="7a1_b_J5-R9K5x0xeJeq-13">
          <mxGeometry relative="1" as="geometry" />
        </mxCell>
        <mxCell id="7a1_b_J5-R9K5x0xeJeq-18" value="檢查輸入內容是否有問題" style="fontSize=20;" vertex="1" parent="7a1_b_J5-R9K5x0xeJeq-10">
          <mxGeometry x="82.5" y="280" width="235" height="50" as="geometry" />
        </mxCell>
        <mxCell id="7a1_b_J5-R9K5x0xeJeq-19" value="提示提問失敗" style="fontSize=20;" vertex="1" parent="7a1_b_J5-R9K5x0xeJeq-10">
          <mxGeometry x="36.25" y="470" width="140" height="50" as="geometry" />
        </mxCell>
        <mxCell id="7a1_b_J5-R9K5x0xeJeq-20" style="edgeStyle=orthogonalEdgeStyle;rounded=0;orthogonalLoop=1;jettySize=auto;html=1;" edge="1" parent="7a1_b_J5-R9K5x0xeJeq-10" source="7a1_b_J5-R9K5x0xeJeq-21" target="7a1_b_J5-R9K5x0xeJeq-22">
          <mxGeometry relative="1" as="geometry" />
        </mxCell>
        <mxCell id="7a1_b_J5-R9K5x0xeJeq-21" value="呼叫 AI 接收回應" style="fontSize=20;" vertex="1" parent="7a1_b_J5-R9K5x0xeJeq-10">
          <mxGeometry x="226.25" y="470" width="160" height="50" as="geometry" />
        </mxCell>
        <mxCell id="7a1_b_J5-R9K5x0xeJeq-22" value="顯示AI回應內容" style="fontSize=20;" vertex="1" parent="7a1_b_J5-R9K5x0xeJeq-10">
          <mxGeometry x="228.75" y="570" width="155" height="50" as="geometry" />
        </mxCell>
        <mxCell id="7a1_b_J5-R9K5x0xeJeq-23" style="edgeStyle=orthogonalEdgeStyle;rounded=0;orthogonalLoop=1;jettySize=auto;html=1;entryX=0;entryY=0.5;entryDx=0;entryDy=0;" edge="1" parent="1" source="7a1_b_J5-R9K5x0xeJeq-6" target="7a1_b_J5-R9K5x0xeJeq-16">
          <mxGeometry relative="1" as="geometry" />
        </mxCell>
        <mxCell id="7a1_b_J5-R9K5x0xeJeq-24" style="edgeStyle=orthogonalEdgeStyle;rounded=0;orthogonalLoop=1;jettySize=auto;html=1;entryX=0.5;entryY=0;entryDx=0;entryDy=0;" edge="1" parent="1" source="7a1_b_J5-R9K5x0xeJeq-16" target="7a1_b_J5-R9K5x0xeJeq-8">
          <mxGeometry relative="1" as="geometry">
            <Array as="points">
              <mxPoint x="558" y="580" />
              <mxPoint x="245" y="580" />
            </Array>
          </mxGeometry>
        </mxCell>
        <mxCell id="7a1_b_J5-R9K5x0xeJeq-25" style="edgeStyle=orthogonalEdgeStyle;rounded=0;orthogonalLoop=1;jettySize=auto;html=1;" edge="1" parent="1" source="7a1_b_J5-R9K5x0xeJeq-9" target="7a1_b_J5-R9K5x0xeJeq-18">
          <mxGeometry relative="1" as="geometry" />
        </mxCell>
        <mxCell id="7a1_b_J5-R9K5x0xeJeq-26" style="edgeStyle=orthogonalEdgeStyle;rounded=0;orthogonalLoop=1;jettySize=auto;html=1;entryX=0;entryY=0.5;entryDx=0;entryDy=0;" edge="1" parent="1" source="7a1_b_J5-R9K5x0xeJeq-19" target="7a1_b_J5-R9K5x0xeJeq-8">
          <mxGeometry relative="1" as="geometry" />
        </mxCell>
        <mxCell id="7a1_b_J5-R9K5x0xeJeq-28" style="edgeStyle=orthogonalEdgeStyle;rounded=0;orthogonalLoop=1;jettySize=auto;html=1;entryX=1;entryY=0.5;entryDx=0;entryDy=0;" edge="1" parent="1" source="7a1_b_J5-R9K5x0xeJeq-22" target="7a1_b_J5-R9K5x0xeJeq-5">
          <mxGeometry relative="1" as="geometry" />
        </mxCell>
      </root>
    </mxGraphModel>
  </diagram>
</mxfile>
